<mxfile host="app.diagrams.net" agent="Mozilla/5.0 (Windows NT 10.0; Win64; x64) AppleWebKit/537.36 (KHTML, like Gecko) Chrome/130.0.0.0 Safari/537.36" version="24.8.3">
  <diagram name="Page-1" id="nuq_fQhwBbGKbrYx_LSi">
    <mxGraphModel dx="2074" dy="1098" grid="1" gridSize="10" guides="1" tooltips="1" connect="1" arrows="1" fold="1" page="1" pageScale="1" pageWidth="850" pageHeight="1100" math="0" shadow="0">
      <root>
        <mxCell id="0" />
        <mxCell id="1" parent="0" />
        <mxCell id="Az2_Xh1GYsaFSy83hxPa-2" value="User" style="swimlane;fontStyle=0;childLayout=stackLayout;horizontal=1;startSize=30;horizontalStack=0;resizeParent=1;resizeParentMax=0;resizeLast=0;collapsible=1;marginBottom=0;whiteSpace=wrap;html=1;" vertex="1" parent="1">
          <mxGeometry x="110" y="60" width="140" height="120" as="geometry" />
        </mxCell>
        <mxCell id="Az2_Xh1GYsaFSy83hxPa-3" value="id" style="text;strokeColor=none;fillColor=none;align=left;verticalAlign=middle;spacingLeft=4;spacingRight=4;overflow=hidden;points=[[0,0.5],[1,0.5]];portConstraint=eastwest;rotatable=0;whiteSpace=wrap;html=1;" vertex="1" parent="Az2_Xh1GYsaFSy83hxPa-2">
          <mxGeometry y="30" width="140" height="30" as="geometry" />
        </mxCell>
        <mxCell id="Az2_Xh1GYsaFSy83hxPa-4" value="username" style="text;strokeColor=none;fillColor=none;align=left;verticalAlign=middle;spacingLeft=4;spacingRight=4;overflow=hidden;points=[[0,0.5],[1,0.5]];portConstraint=eastwest;rotatable=0;whiteSpace=wrap;html=1;" vertex="1" parent="Az2_Xh1GYsaFSy83hxPa-2">
          <mxGeometry y="60" width="140" height="30" as="geometry" />
        </mxCell>
        <mxCell id="Az2_Xh1GYsaFSy83hxPa-5" value="email" style="text;strokeColor=none;fillColor=none;align=left;verticalAlign=middle;spacingLeft=4;spacingRight=4;overflow=hidden;points=[[0,0.5],[1,0.5]];portConstraint=eastwest;rotatable=0;whiteSpace=wrap;html=1;" vertex="1" parent="Az2_Xh1GYsaFSy83hxPa-2">
          <mxGeometry y="90" width="140" height="30" as="geometry" />
        </mxCell>
        <mxCell id="Az2_Xh1GYsaFSy83hxPa-6" value="Team" style="swimlane;fontStyle=0;childLayout=stackLayout;horizontal=1;startSize=30;horizontalStack=0;resizeParent=1;resizeParentMax=0;resizeLast=0;collapsible=1;marginBottom=0;whiteSpace=wrap;html=1;" vertex="1" parent="1">
          <mxGeometry x="520" y="50" width="140" height="90" as="geometry" />
        </mxCell>
        <mxCell id="Az2_Xh1GYsaFSy83hxPa-7" value="id" style="text;strokeColor=none;fillColor=none;align=left;verticalAlign=middle;spacingLeft=4;spacingRight=4;overflow=hidden;points=[[0,0.5],[1,0.5]];portConstraint=eastwest;rotatable=0;whiteSpace=wrap;html=1;" vertex="1" parent="Az2_Xh1GYsaFSy83hxPa-6">
          <mxGeometry y="30" width="140" height="30" as="geometry" />
        </mxCell>
        <mxCell id="Az2_Xh1GYsaFSy83hxPa-8" value="name" style="text;strokeColor=none;fillColor=none;align=left;verticalAlign=middle;spacingLeft=4;spacingRight=4;overflow=hidden;points=[[0,0.5],[1,0.5]];portConstraint=eastwest;rotatable=0;whiteSpace=wrap;html=1;" vertex="1" parent="Az2_Xh1GYsaFSy83hxPa-6">
          <mxGeometry y="60" width="140" height="30" as="geometry" />
        </mxCell>
        <mxCell id="Az2_Xh1GYsaFSy83hxPa-10" value="UserTeam" style="swimlane;fontStyle=0;childLayout=stackLayout;horizontal=1;startSize=30;horizontalStack=0;resizeParent=1;resizeParentMax=0;resizeLast=0;collapsible=1;marginBottom=0;whiteSpace=wrap;html=1;" vertex="1" parent="1">
          <mxGeometry x="320" y="70" width="140" height="120" as="geometry" />
        </mxCell>
        <mxCell id="Az2_Xh1GYsaFSy83hxPa-11" value="id" style="text;strokeColor=none;fillColor=none;align=left;verticalAlign=middle;spacingLeft=4;spacingRight=4;overflow=hidden;points=[[0,0.5],[1,0.5]];portConstraint=eastwest;rotatable=0;whiteSpace=wrap;html=1;" vertex="1" parent="Az2_Xh1GYsaFSy83hxPa-10">
          <mxGeometry y="30" width="140" height="30" as="geometry" />
        </mxCell>
        <mxCell id="Az2_Xh1GYsaFSy83hxPa-12" value="user_id" style="text;strokeColor=none;fillColor=none;align=left;verticalAlign=middle;spacingLeft=4;spacingRight=4;overflow=hidden;points=[[0,0.5],[1,0.5]];portConstraint=eastwest;rotatable=0;whiteSpace=wrap;html=1;" vertex="1" parent="Az2_Xh1GYsaFSy83hxPa-10">
          <mxGeometry y="60" width="140" height="30" as="geometry" />
        </mxCell>
        <mxCell id="Az2_Xh1GYsaFSy83hxPa-13" value="team_id" style="text;strokeColor=none;fillColor=none;align=left;verticalAlign=middle;spacingLeft=4;spacingRight=4;overflow=hidden;points=[[0,0.5],[1,0.5]];portConstraint=eastwest;rotatable=0;whiteSpace=wrap;html=1;" vertex="1" parent="Az2_Xh1GYsaFSy83hxPa-10">
          <mxGeometry y="90" width="140" height="30" as="geometry" />
        </mxCell>
        <mxCell id="Az2_Xh1GYsaFSy83hxPa-14" style="edgeStyle=orthogonalEdgeStyle;rounded=0;orthogonalLoop=1;jettySize=auto;html=1;entryX=0;entryY=0.5;entryDx=0;entryDy=0;" edge="1" parent="1" source="Az2_Xh1GYsaFSy83hxPa-3" target="Az2_Xh1GYsaFSy83hxPa-12">
          <mxGeometry relative="1" as="geometry" />
        </mxCell>
        <mxCell id="Az2_Xh1GYsaFSy83hxPa-15" style="edgeStyle=orthogonalEdgeStyle;rounded=0;orthogonalLoop=1;jettySize=auto;html=1;entryX=1;entryY=0.5;entryDx=0;entryDy=0;" edge="1" parent="1" source="Az2_Xh1GYsaFSy83hxPa-7" target="Az2_Xh1GYsaFSy83hxPa-13">
          <mxGeometry relative="1" as="geometry" />
        </mxCell>
        <mxCell id="Az2_Xh1GYsaFSy83hxPa-16" value="Part" style="swimlane;fontStyle=0;childLayout=stackLayout;horizontal=1;startSize=30;horizontalStack=0;resizeParent=1;resizeParentMax=0;resizeLast=0;collapsible=1;marginBottom=0;whiteSpace=wrap;html=1;" vertex="1" parent="1">
          <mxGeometry x="50" y="310" width="140" height="120" as="geometry" />
        </mxCell>
        <mxCell id="Az2_Xh1GYsaFSy83hxPa-17" value="id" style="text;strokeColor=none;fillColor=none;align=left;verticalAlign=middle;spacingLeft=4;spacingRight=4;overflow=hidden;points=[[0,0.5],[1,0.5]];portConstraint=eastwest;rotatable=0;whiteSpace=wrap;html=1;" vertex="1" parent="Az2_Xh1GYsaFSy83hxPa-16">
          <mxGeometry y="30" width="140" height="30" as="geometry" />
        </mxCell>
        <mxCell id="Az2_Xh1GYsaFSy83hxPa-18" value="name" style="text;strokeColor=none;fillColor=none;align=left;verticalAlign=middle;spacingLeft=4;spacingRight=4;overflow=hidden;points=[[0,0.5],[1,0.5]];portConstraint=eastwest;rotatable=0;whiteSpace=wrap;html=1;" vertex="1" parent="Az2_Xh1GYsaFSy83hxPa-16">
          <mxGeometry y="60" width="140" height="30" as="geometry" />
        </mxCell>
        <mxCell id="Az2_Xh1GYsaFSy83hxPa-19" value="stock" style="text;strokeColor=none;fillColor=none;align=left;verticalAlign=middle;spacingLeft=4;spacingRight=4;overflow=hidden;points=[[0,0.5],[1,0.5]];portConstraint=eastwest;rotatable=0;whiteSpace=wrap;html=1;" vertex="1" parent="Az2_Xh1GYsaFSy83hxPa-16">
          <mxGeometry y="90" width="140" height="30" as="geometry" />
        </mxCell>
        <mxCell id="Az2_Xh1GYsaFSy83hxPa-20" value="Aircraft" style="swimlane;fontStyle=0;childLayout=stackLayout;horizontal=1;startSize=30;horizontalStack=0;resizeParent=1;resizeParentMax=0;resizeLast=0;collapsible=1;marginBottom=0;whiteSpace=wrap;html=1;" vertex="1" parent="1">
          <mxGeometry x="670" y="250" width="140" height="120" as="geometry" />
        </mxCell>
        <mxCell id="Az2_Xh1GYsaFSy83hxPa-21" value="id" style="text;strokeColor=none;fillColor=none;align=left;verticalAlign=middle;spacingLeft=4;spacingRight=4;overflow=hidden;points=[[0,0.5],[1,0.5]];portConstraint=eastwest;rotatable=0;whiteSpace=wrap;html=1;" vertex="1" parent="Az2_Xh1GYsaFSy83hxPa-20">
          <mxGeometry y="30" width="140" height="30" as="geometry" />
        </mxCell>
        <mxCell id="Az2_Xh1GYsaFSy83hxPa-22" value="name" style="text;strokeColor=none;fillColor=none;align=left;verticalAlign=middle;spacingLeft=4;spacingRight=4;overflow=hidden;points=[[0,0.5],[1,0.5]];portConstraint=eastwest;rotatable=0;whiteSpace=wrap;html=1;" vertex="1" parent="Az2_Xh1GYsaFSy83hxPa-20">
          <mxGeometry y="60" width="140" height="30" as="geometry" />
        </mxCell>
        <mxCell id="Az2_Xh1GYsaFSy83hxPa-23" value="type" style="text;strokeColor=none;fillColor=none;align=left;verticalAlign=middle;spacingLeft=4;spacingRight=4;overflow=hidden;points=[[0,0.5],[1,0.5]];portConstraint=eastwest;rotatable=0;whiteSpace=wrap;html=1;" vertex="1" parent="Az2_Xh1GYsaFSy83hxPa-20">
          <mxGeometry y="90" width="140" height="30" as="geometry" />
        </mxCell>
        <mxCell id="Az2_Xh1GYsaFSy83hxPa-24" value="PartProduction" style="swimlane;fontStyle=0;childLayout=stackLayout;horizontal=1;startSize=30;horizontalStack=0;resizeParent=1;resizeParentMax=0;resizeLast=0;collapsible=1;marginBottom=0;whiteSpace=wrap;html=1;" vertex="1" parent="1">
          <mxGeometry x="320" y="280" width="140" height="270" as="geometry" />
        </mxCell>
        <mxCell id="Az2_Xh1GYsaFSy83hxPa-25" value="id" style="text;strokeColor=none;fillColor=none;align=left;verticalAlign=middle;spacingLeft=4;spacingRight=4;overflow=hidden;points=[[0,0.5],[1,0.5]];portConstraint=eastwest;rotatable=0;whiteSpace=wrap;html=1;" vertex="1" parent="Az2_Xh1GYsaFSy83hxPa-24">
          <mxGeometry y="30" width="140" height="30" as="geometry" />
        </mxCell>
        <mxCell id="Az2_Xh1GYsaFSy83hxPa-26" value="part_id" style="text;strokeColor=none;fillColor=none;align=left;verticalAlign=middle;spacingLeft=4;spacingRight=4;overflow=hidden;points=[[0,0.5],[1,0.5]];portConstraint=eastwest;rotatable=0;whiteSpace=wrap;html=1;" vertex="1" parent="Az2_Xh1GYsaFSy83hxPa-24">
          <mxGeometry y="60" width="140" height="30" as="geometry" />
        </mxCell>
        <mxCell id="Az2_Xh1GYsaFSy83hxPa-27" value="producing_user_id" style="text;strokeColor=none;fillColor=none;align=left;verticalAlign=middle;spacingLeft=4;spacingRight=4;overflow=hidden;points=[[0,0.5],[1,0.5]];portConstraint=eastwest;rotatable=0;whiteSpace=wrap;html=1;" vertex="1" parent="Az2_Xh1GYsaFSy83hxPa-24">
          <mxGeometry y="90" width="140" height="30" as="geometry" />
        </mxCell>
        <mxCell id="Az2_Xh1GYsaFSy83hxPa-36" value="produced_date" style="text;strokeColor=none;fillColor=none;align=left;verticalAlign=middle;spacingLeft=4;spacingRight=4;overflow=hidden;points=[[0,0.5],[1,0.5]];portConstraint=eastwest;rotatable=0;whiteSpace=wrap;html=1;" vertex="1" parent="Az2_Xh1GYsaFSy83hxPa-24">
          <mxGeometry y="120" width="140" height="30" as="geometry" />
        </mxCell>
        <mxCell id="Az2_Xh1GYsaFSy83hxPa-37" value="aircraft_type" style="text;strokeColor=none;fillColor=none;align=left;verticalAlign=middle;spacingLeft=4;spacingRight=4;overflow=hidden;points=[[0,0.5],[1,0.5]];portConstraint=eastwest;rotatable=0;whiteSpace=wrap;html=1;" vertex="1" parent="Az2_Xh1GYsaFSy83hxPa-24">
          <mxGeometry y="150" width="140" height="30" as="geometry" />
        </mxCell>
        <mxCell id="Az2_Xh1GYsaFSy83hxPa-38" value="recycled_user_id" style="text;strokeColor=none;fillColor=none;align=left;verticalAlign=middle;spacingLeft=4;spacingRight=4;overflow=hidden;points=[[0,0.5],[1,0.5]];portConstraint=eastwest;rotatable=0;whiteSpace=wrap;html=1;" vertex="1" parent="Az2_Xh1GYsaFSy83hxPa-24">
          <mxGeometry y="180" width="140" height="30" as="geometry" />
        </mxCell>
        <mxCell id="Az2_Xh1GYsaFSy83hxPa-39" value="recycled_date" style="text;strokeColor=none;fillColor=none;align=left;verticalAlign=middle;spacingLeft=4;spacingRight=4;overflow=hidden;points=[[0,0.5],[1,0.5]];portConstraint=eastwest;rotatable=0;whiteSpace=wrap;html=1;" vertex="1" parent="Az2_Xh1GYsaFSy83hxPa-24">
          <mxGeometry y="210" width="140" height="30" as="geometry" />
        </mxCell>
        <mxCell id="Az2_Xh1GYsaFSy83hxPa-40" value="is_assembly" style="text;strokeColor=none;fillColor=none;align=left;verticalAlign=middle;spacingLeft=4;spacingRight=4;overflow=hidden;points=[[0,0.5],[1,0.5]];portConstraint=eastwest;rotatable=0;whiteSpace=wrap;html=1;" vertex="1" parent="Az2_Xh1GYsaFSy83hxPa-24">
          <mxGeometry y="240" width="140" height="30" as="geometry" />
        </mxCell>
        <mxCell id="Az2_Xh1GYsaFSy83hxPa-30" style="edgeStyle=orthogonalEdgeStyle;rounded=0;orthogonalLoop=1;jettySize=auto;html=1;entryX=0;entryY=0.5;entryDx=0;entryDy=0;" edge="1" parent="1" source="Az2_Xh1GYsaFSy83hxPa-3" target="Az2_Xh1GYsaFSy83hxPa-27">
          <mxGeometry relative="1" as="geometry" />
        </mxCell>
        <mxCell id="Az2_Xh1GYsaFSy83hxPa-33" style="edgeStyle=orthogonalEdgeStyle;rounded=0;orthogonalLoop=1;jettySize=auto;html=1;" edge="1" parent="1" source="Az2_Xh1GYsaFSy83hxPa-17" target="Az2_Xh1GYsaFSy83hxPa-26">
          <mxGeometry relative="1" as="geometry" />
        </mxCell>
        <mxCell id="Az2_Xh1GYsaFSy83hxPa-41" value="AircraftProduction" style="swimlane;fontStyle=0;childLayout=stackLayout;horizontal=1;startSize=30;horizontalStack=0;resizeParent=1;resizeParentMax=0;resizeLast=0;collapsible=1;marginBottom=0;whiteSpace=wrap;html=1;" vertex="1" parent="1">
          <mxGeometry x="320" y="690" width="140" height="150" as="geometry" />
        </mxCell>
        <mxCell id="Az2_Xh1GYsaFSy83hxPa-42" value="id" style="text;strokeColor=none;fillColor=none;align=left;verticalAlign=middle;spacingLeft=4;spacingRight=4;overflow=hidden;points=[[0,0.5],[1,0.5]];portConstraint=eastwest;rotatable=0;whiteSpace=wrap;html=1;" vertex="1" parent="Az2_Xh1GYsaFSy83hxPa-41">
          <mxGeometry y="30" width="140" height="30" as="geometry" />
        </mxCell>
        <mxCell id="Az2_Xh1GYsaFSy83hxPa-43" value="aircraft_id" style="text;strokeColor=none;fillColor=none;align=left;verticalAlign=middle;spacingLeft=4;spacingRight=4;overflow=hidden;points=[[0,0.5],[1,0.5]];portConstraint=eastwest;rotatable=0;whiteSpace=wrap;html=1;" vertex="1" parent="Az2_Xh1GYsaFSy83hxPa-41">
          <mxGeometry y="60" width="140" height="30" as="geometry" />
        </mxCell>
        <mxCell id="Az2_Xh1GYsaFSy83hxPa-44" value="assembly_user_id" style="text;strokeColor=none;fillColor=none;align=left;verticalAlign=middle;spacingLeft=4;spacingRight=4;overflow=hidden;points=[[0,0.5],[1,0.5]];portConstraint=eastwest;rotatable=0;whiteSpace=wrap;html=1;" vertex="1" parent="Az2_Xh1GYsaFSy83hxPa-41">
          <mxGeometry y="90" width="140" height="30" as="geometry" />
        </mxCell>
        <mxCell id="Az2_Xh1GYsaFSy83hxPa-51" value="assembly_date" style="text;strokeColor=none;fillColor=none;align=left;verticalAlign=middle;spacingLeft=4;spacingRight=4;overflow=hidden;points=[[0,0.5],[1,0.5]];portConstraint=eastwest;rotatable=0;whiteSpace=wrap;html=1;" vertex="1" parent="Az2_Xh1GYsaFSy83hxPa-41">
          <mxGeometry y="120" width="140" height="30" as="geometry" />
        </mxCell>
        <mxCell id="Az2_Xh1GYsaFSy83hxPa-46" style="edgeStyle=orthogonalEdgeStyle;rounded=0;orthogonalLoop=1;jettySize=auto;html=1;entryX=0;entryY=0.5;entryDx=0;entryDy=0;" edge="1" parent="1" source="Az2_Xh1GYsaFSy83hxPa-3" target="Az2_Xh1GYsaFSy83hxPa-38">
          <mxGeometry relative="1" as="geometry" />
        </mxCell>
        <mxCell id="Az2_Xh1GYsaFSy83hxPa-47" style="edgeStyle=orthogonalEdgeStyle;rounded=0;orthogonalLoop=1;jettySize=auto;html=1;" edge="1" parent="1" source="Az2_Xh1GYsaFSy83hxPa-21" target="Az2_Xh1GYsaFSy83hxPa-43">
          <mxGeometry relative="1" as="geometry">
            <Array as="points">
              <mxPoint x="840" y="295" />
              <mxPoint x="840" y="435" />
              <mxPoint x="790" y="435" />
              <mxPoint x="790" y="765" />
            </Array>
          </mxGeometry>
        </mxCell>
        <mxCell id="Az2_Xh1GYsaFSy83hxPa-49" style="edgeStyle=orthogonalEdgeStyle;rounded=0;orthogonalLoop=1;jettySize=auto;html=1;entryX=1;entryY=0.2;entryDx=0;entryDy=0;entryPerimeter=0;" edge="1" parent="1" source="Az2_Xh1GYsaFSy83hxPa-21" target="Az2_Xh1GYsaFSy83hxPa-37">
          <mxGeometry relative="1" as="geometry" />
        </mxCell>
        <mxCell id="Az2_Xh1GYsaFSy83hxPa-52" style="edgeStyle=orthogonalEdgeStyle;rounded=0;orthogonalLoop=1;jettySize=auto;html=1;" edge="1" parent="1" source="Az2_Xh1GYsaFSy83hxPa-3" target="Az2_Xh1GYsaFSy83hxPa-44">
          <mxGeometry relative="1" as="geometry" />
        </mxCell>
        <mxCell id="Az2_Xh1GYsaFSy83hxPa-53" value="PartOfAircraft" style="swimlane;fontStyle=0;childLayout=stackLayout;horizontal=1;startSize=30;horizontalStack=0;resizeParent=1;resizeParentMax=0;resizeLast=0;collapsible=1;marginBottom=0;whiteSpace=wrap;html=1;" vertex="1" parent="1">
          <mxGeometry x="590" y="540" width="140" height="120" as="geometry" />
        </mxCell>
        <mxCell id="Az2_Xh1GYsaFSy83hxPa-54" value="id" style="text;strokeColor=none;fillColor=none;align=left;verticalAlign=middle;spacingLeft=4;spacingRight=4;overflow=hidden;points=[[0,0.5],[1,0.5]];portConstraint=eastwest;rotatable=0;whiteSpace=wrap;html=1;" vertex="1" parent="Az2_Xh1GYsaFSy83hxPa-53">
          <mxGeometry y="30" width="140" height="30" as="geometry" />
        </mxCell>
        <mxCell id="Az2_Xh1GYsaFSy83hxPa-55" value="aircraft_production_id" style="text;strokeColor=none;fillColor=none;align=left;verticalAlign=middle;spacingLeft=4;spacingRight=4;overflow=hidden;points=[[0,0.5],[1,0.5]];portConstraint=eastwest;rotatable=0;whiteSpace=wrap;html=1;" vertex="1" parent="Az2_Xh1GYsaFSy83hxPa-53">
          <mxGeometry y="60" width="140" height="30" as="geometry" />
        </mxCell>
        <mxCell id="Az2_Xh1GYsaFSy83hxPa-56" value="part_production_id" style="text;strokeColor=none;fillColor=none;align=left;verticalAlign=middle;spacingLeft=4;spacingRight=4;overflow=hidden;points=[[0,0.5],[1,0.5]];portConstraint=eastwest;rotatable=0;whiteSpace=wrap;html=1;" vertex="1" parent="Az2_Xh1GYsaFSy83hxPa-53">
          <mxGeometry y="90" width="140" height="30" as="geometry" />
        </mxCell>
        <mxCell id="Az2_Xh1GYsaFSy83hxPa-58" style="edgeStyle=orthogonalEdgeStyle;rounded=0;orthogonalLoop=1;jettySize=auto;html=1;" edge="1" parent="1" source="Az2_Xh1GYsaFSy83hxPa-25" target="Az2_Xh1GYsaFSy83hxPa-56">
          <mxGeometry relative="1" as="geometry">
            <Array as="points">
              <mxPoint x="525" y="325" />
              <mxPoint x="525" y="645" />
            </Array>
          </mxGeometry>
        </mxCell>
        <mxCell id="Az2_Xh1GYsaFSy83hxPa-60" value="Teams" style="swimlane;whiteSpace=wrap;html=1;" vertex="1" parent="1">
          <mxGeometry x="40" y="870" width="200" height="200" as="geometry" />
        </mxCell>
        <mxCell id="Az2_Xh1GYsaFSy83hxPa-61" value="&lt;ul style=&quot;font-size: 15px;&quot;&gt;&lt;li&gt;Kanat Takimi&lt;/li&gt;&lt;li&gt;Govde Takimi&lt;/li&gt;&lt;li&gt;Kuyruk Takimi&lt;/li&gt;&lt;li&gt;Aviyonik takimi&lt;/li&gt;&lt;li&gt;Montaj Takimi&lt;/li&gt;&lt;/ul&gt;" style="text;html=1;align=left;verticalAlign=middle;resizable=0;points=[];autosize=1;strokeColor=none;fillColor=none;" vertex="1" parent="Az2_Xh1GYsaFSy83hxPa-60">
          <mxGeometry y="40" width="160" height="130" as="geometry" />
        </mxCell>
        <mxCell id="Az2_Xh1GYsaFSy83hxPa-62" value="Parts" style="swimlane;whiteSpace=wrap;html=1;" vertex="1" parent="1">
          <mxGeometry x="340" y="870" width="200" height="200" as="geometry" />
        </mxCell>
        <mxCell id="Az2_Xh1GYsaFSy83hxPa-63" value="&lt;ul style=&quot;font-size: 15px;&quot;&gt;&lt;li&gt;Kanat&lt;/li&gt;&lt;li&gt;Govde&lt;/li&gt;&lt;li&gt;Kuyruk&lt;/li&gt;&lt;li&gt;Aviyonik&lt;/li&gt;&lt;/ul&gt;" style="text;html=1;align=left;verticalAlign=middle;resizable=0;points=[];autosize=1;strokeColor=none;fillColor=none;" vertex="1" parent="Az2_Xh1GYsaFSy83hxPa-62">
          <mxGeometry y="45" width="120" height="120" as="geometry" />
        </mxCell>
        <mxCell id="Az2_Xh1GYsaFSy83hxPa-64" value="Aircrafts" style="swimlane;whiteSpace=wrap;html=1;startSize=23;" vertex="1" parent="1">
          <mxGeometry x="600" y="870" width="200" height="200" as="geometry" />
        </mxCell>
        <mxCell id="Az2_Xh1GYsaFSy83hxPa-65" value="&lt;ul style=&quot;font-size: 15px;&quot;&gt;&lt;li&gt;TB2&lt;/li&gt;&lt;li&gt;TB3&lt;/li&gt;&lt;li&gt;AKINCI&lt;/li&gt;&lt;li&gt;KIZILELMA&lt;/li&gt;&lt;/ul&gt;" style="text;html=1;align=left;verticalAlign=middle;resizable=0;points=[];autosize=1;strokeColor=none;fillColor=none;" vertex="1" parent="Az2_Xh1GYsaFSy83hxPa-64">
          <mxGeometry y="45" width="140" height="120" as="geometry" />
        </mxCell>
        <mxCell id="Az2_Xh1GYsaFSy83hxPa-66" style="edgeStyle=orthogonalEdgeStyle;rounded=0;orthogonalLoop=1;jettySize=auto;html=1;" edge="1" parent="1" source="Az2_Xh1GYsaFSy83hxPa-42" target="Az2_Xh1GYsaFSy83hxPa-55">
          <mxGeometry relative="1" as="geometry" />
        </mxCell>
      </root>
    </mxGraphModel>
  </diagram>
</mxfile>
